<?xml version="1.0" encoding="utf-8"?>
<!-- Generator: Adobe Illustrator 16.0.0, SVG Export Plug-In . SVG Version: 6.00 Build 0)  -->
<!DOCTYPE svg PUBLIC "-//W3C//DTD SVG 1.1//EN" "http://www.w3.org/Graphics/SVG/1.1/DTD/svg11.dtd">
<svg version="1.1" id="Layer_1" xmlns="http://www.w3.org/2000/svg" xmlns:xlink="http://www.w3.org/1999/xlink" x="0px" y="0px"
	 width="353.886px" height="54.256px" viewBox="0 0 353.886 54.256" enable-background="new 0 0 353.886 54.256"
	 xml:space="preserve">
<g>
	<path fill="#FFFFFF" d="M114.006,20.002h-7.927v20.978h-7.564V20.002h-7.967v-6.604h23.458V20.002z"/>
	<path fill="#FFFFFF" d="M119.441,40.979l10.301-27.582h6.135l10.26,27.582h-8.005l-1.669-5.404h-7.348l-1.628,5.404H119.441z
		 M132.808,21.276l-2.562,9.254h5.013L132.808,21.276z"/>
	<path fill="#FFFFFF" d="M155.959,40.979V13.397h11.892c1.347,0,2.589,0.273,3.727,0.838c1.144,0.554,2.123,1.282,2.933,2.172
		c0.823,0.891,1.464,1.917,1.923,3.07c0.466,1.148,0.701,2.305,0.701,3.472c0,1.216-0.221,2.401-0.658,3.554
		c-0.45,1.155-1.06,2.183-1.847,3.069c-0.797,0.897-1.748,1.603-2.882,2.139c-1.116,0.527-2.356,0.794-3.701,0.794h-4.516v8.473
		H155.959z M163.53,25.897h4.01c0.459,0,0.898-0.207,1.304-0.635c0.401-0.428,0.605-1.204,0.605-2.312
		c0-1.138-0.243-1.91-0.703-2.324c-0.463-0.421-0.938-0.624-1.401-0.624h-3.814V25.897z"/>
	<path fill="#FFFFFF" d="M187.824,40.979V13.397h7.572v20.974h12.498v6.608H187.824z"/>
	<path fill="#FFFFFF" d="M220.176,13.397l4.934,11.924l5.046-11.924h8.246l-9.524,18.447v9.135h-7.539v-9.212l-9.355-18.37H220.176z
		"/>
	<path fill="#FFFFFF" d="M269.431,20.002h-7.921v20.978h-7.576V20.002h-7.96v-6.604h23.457V20.002z"/>
	<path fill="#FFFFFF" d="M279.965,40.979V13.397h7.569v27.582H279.965z"/>
	<path fill="#FFFFFF" d="M298.531,26.95c0-1.677,0.291-3.339,0.891-4.976c0.591-1.625,1.466-3.092,2.625-4.388
		c1.14-1.289,2.551-2.347,4.19-3.141c1.643-0.809,3.513-1.197,5.615-1.197c2.464,0,4.613,0.54,6.441,1.644
		c1.844,1.104,3.217,2.553,4.082,4.366l-5.783,4.126c-0.234-0.684-0.536-1.238-0.922-1.681c-0.365-0.432-0.774-0.791-1.223-1.045
		c-0.436-0.258-0.909-0.443-1.382-0.546c-0.506-0.092-0.959-0.151-1.365-0.151c-0.969,0-1.789,0.21-2.464,0.635
		c-0.691,0.433-1.264,0.994-1.715,1.673c-0.458,0.684-0.786,1.467-0.993,2.334c-0.204,0.869-0.308,1.726-0.308,2.582
		c0,0.96,0.13,1.88,0.362,2.764c0.247,0.879,0.605,1.655,1.086,2.323c0.484,0.676,1.067,1.212,1.752,1.607
		c0.687,0.406,1.469,0.608,2.356,0.608c0.443,0,0.893-0.062,1.359-0.168c0.458-0.124,0.917-0.322,1.344-0.589
		c0.418-0.272,0.811-0.625,1.16-1.045c0.354-0.429,0.62-0.951,0.831-1.585l6.178,3.693c-0.393,1.007-0.979,1.918-1.773,2.717
		c-0.783,0.812-1.678,1.476-2.701,2.028c-0.992,0.543-2.079,0.951-3.222,1.244c-1.141,0.283-2.253,0.429-3.336,0.429
		c-1.917,0-3.671-0.412-5.277-1.234c-1.614-0.811-2.992-1.891-4.141-3.244c-1.152-1.341-2.055-2.87-2.697-4.569
		C298.855,30.441,298.531,28.708,298.531,26.95z"/>
	<path fill="#FFFFFF" d="M349.952,22.411c-0.772-0.473-1.575-0.887-2.396-1.242c-0.696-0.321-1.488-0.609-2.354-0.875
		c-0.875-0.273-1.719-0.411-2.551-0.411c-0.667,0-1.207,0.097-1.602,0.318c-0.41,0.199-0.614,0.546-0.614,1.052
		c0,0.355,0.123,0.65,0.355,0.88c0.24,0.236,0.573,0.446,1.008,0.646c0.443,0.196,0.979,0.384,1.61,0.561
		c0.637,0.181,1.356,0.396,2.155,0.658c1.277,0.395,2.418,0.82,3.449,1.29c1.017,0.462,1.898,1.005,2.619,1.647
		c0.724,0.628,1.277,1.404,1.666,2.305c0.396,0.912,0.587,2.014,0.587,3.3c0,1.657-0.299,3.058-0.919,4.188
		c-0.61,1.119-1.407,2.024-2.401,2.692c-0.998,0.676-2.12,1.16-3.389,1.456c-1.247,0.3-2.511,0.447-3.774,0.447
		c-1.016,0-2.058-0.074-3.114-0.233c-1.062-0.147-2.112-0.373-3.172-0.661c-1.046-0.285-2.058-0.617-3.027-1.009
		c-0.968-0.387-1.876-0.822-2.698-1.318l3.265-6.646c0.898,0.577,1.845,1.078,2.833,1.519c0.824,0.391,1.771,0.735,2.816,1.044
		c1.056,0.308,2.115,0.47,3.212,0.47c0.82,0,1.404-0.102,1.723-0.321c0.325-0.235,0.483-0.527,0.483-0.882
		c0-0.389-0.158-0.721-0.483-0.993c-0.318-0.274-0.773-0.506-1.338-0.718c-0.573-0.203-1.227-0.406-1.957-0.624
		c-0.744-0.199-1.529-0.45-2.357-0.731c-1.217-0.417-2.27-0.872-3.144-1.341c-0.89-0.484-1.607-1.027-2.184-1.632
		c-0.568-0.606-0.979-1.309-1.264-2.088c-0.266-0.765-0.405-1.658-0.405-2.674c0-1.525,0.275-2.878,0.834-4.041
		c0.562-1.167,1.325-2.132,2.283-2.904c0.949-0.787,2.046-1.374,3.288-1.777c1.229-0.402,2.522-0.598,3.893-0.598
		c1.013,0,1.991,0.088,2.96,0.295c0.949,0.188,1.865,0.432,2.773,0.724c0.898,0.31,1.723,0.628,2.501,0.979
		c0.78,0.355,1.471,0.684,2.102,0.991L349.952,22.411z"/>
</g>
<g>
	<polygon fill="#FFFFFF" points="13.22,13.222 13.22,20.865 23.312,20.865 23.312,41.03 30.942,41.03 30.942,13.222 	"/>
	<polygon fill="#FFFFFF" points="46.227,33.388 46.227,13.222 38.589,13.222 38.589,41.03 56.312,41.03 56.312,33.388 	"/>
</g>
<path fill="#FFFFFF" d="M0,0v54.256h69.535V0H0z M67.068,51.707H2.547V2.549h64.521V51.707z"/>
</svg>
